<svg width="1800" height="900" viewBox="0 0 1800 900" fill="none" xmlns="http://www.w3.org/2000/svg">
  <defs>
    <linearGradient id="base" x1="80" y1="50" x2="1720" y2="850" gradientUnits="userSpaceOnUse">
      <stop offset="0" stop-color="#4F35B8"></stop>

      <stop offset="0.32" stop-color="#8B6CFF"></stop>

      <stop offset="0.62" stop-color="#38BDF8"></stop>

      <stop offset="1" stop-color="#14151B"></stop>
    </linearGradient>

    <radialGradient id="violet" cx="0" cy="0" r="1" gradientUnits="userSpaceOnUse" gradientTransform="translate(430 330) rotate(22) scale(650 420)">
      <stop stop-color="#A78BFA" stop-opacity="0.9"></stop>

      <stop offset="1" stop-color="#7C5CFC" stop-opacity="0"></stop>
    </radialGradient>

    <radialGradient id="cyan" cx="0" cy="0" r="1" gradientUnits="userSpaceOnUse" gradientTransform="translate(1380 540) rotate(-20) scale(620 360)">
      <stop stop-color="#38BDF8" stop-opacity="0.82"></stop>

      <stop offset="1" stop-color="#38BDF8" stop-opacity="0"></stop>
    </radialGradient>

    <pattern id="grid" width="54" height="54" patternUnits="userSpaceOnUse">
      <path d="M54 0H0V54" stroke="white" stroke-opacity="0.07" stroke-width="1"></path>
    </pattern>

    <filter id="blur" x="-30%" y="-30%" width="160%" height="160%">
      <feGaussianBlur stdDeviation="90"></feGaussianBlur>
    </filter>
  </defs>

  <rect width="1800" height="900" fill="#08090B"></rect>

  <rect width="1800" height="900" fill="url(#base)" opacity="0.62"></rect>

  <rect width="1800" height="900" fill="url(#grid)"></rect>

  <ellipse cx="430" cy="330" rx="520" ry="330" fill="url(#violet)" filter="url(#blur)"></ellipse>

  <ellipse cx="1380" cy="540" rx="500" ry="300" fill="url(#cyan)" filter="url(#blur)"></ellipse>

  <path d="M-100 730L620 10" stroke="#C4B5FD" stroke-opacity="0.42" stroke-width="3"></path>

  <path d="M220 920L1030 0" stroke="#7C5CFC" stroke-opacity="0.22" stroke-width="2"></path>

  <path d="M980 900L1800 110" stroke="#38BDF8" stroke-opacity="0.26" stroke-width="2"></path>

  <g opacity="0.35" stroke="white">
    <rect x="104" y="105" width="310" height="120" rx="18"></rect>

    <path d="M135 144H340"></path>

    <path d="M135 177H270"></path>

    <rect x="1320" y="135" width="320" height="145" rx="18"></rect>

    <path d="M1360 178H1580"></path>

    <path d="M1360 214H1515"></path>
  </g>

  <g fill="white" fill-opacity="0.48" font-family="monospace" font-size="18" letter-spacing="4">
    <text x="105" y="780">
      PRODUCT / ENGINEERING / SYSTEMS
    </text>

    <text x="1240" y="770">
      PD. / 2026
    </text>
  </g>
</svg>